<svg width="13" xmlns="http://www.w3.org/2000/svg" height="13" id="screenshot-14df7766-372b-80c0-8007-6e1bd6337aab" viewBox="0 0 13 13" xmlns:xlink="http://www.w3.org/1999/xlink" fill="none" version="1.1"><g id="shape-14df7766-372b-80c0-8007-6e1bd6337aab" rx="0" ry="0" style="fill: rgb(0, 0, 0);"><g id="shape-14df7766-372b-80c0-8007-6e1bd6337aac" style="display: none;"><g class="fills" id="fills-14df7766-372b-80c0-8007-6e1bd6337aac"><rect width="13" height="13" x="0" transform="matrix(1.000000, 0.000000, 0.000000, 1.000000, 0.000000, 0.000000)" style="fill: none;" ry="0" fill="none" rx="0" y="0"/></g></g><g id="shape-14df7766-372b-80c0-8007-6e1bd6337aad"><g class="fills" id="fills-14df7766-372b-80c0-8007-6e1bd6337aad"><rect rx="0" ry="0" x="0" y="0" transform="matrix(1.000000, 0.000000, 0.000000, 1.000000, 0.000000, 0.000000)" width="13" height="13" style="fill: rgb(247, 223, 30);"/></g></g><g id="shape-14df7766-372b-80c0-8007-6e1bd6337aae"><g class="fills" id="fills-14df7766-372b-80c0-8007-6e1bd6337aae"><path d="M8.732711791992188,10.15631103515625C8.994552612304688,10.5838623046875,9.335258483886719,10.89813232421875,9.937812805175781,10.89813232421875C10.443954467773438,10.89813232421875,10.767288208007812,10.6451416015625,10.767288208007812,10.295578002929688C10.767288208007812,9.876693725585938,10.435073852539062,9.72833251953125,9.877906799316406,9.484634399414062L9.572502136230469,9.353607177734375C8.691055297851562,8.978042602539062,8.105400085449219,8.507568359375,8.105400085449219,7.512969970703125C8.105400085449219,6.5967864990234375,8.803482055664062,5.8993072509765625,9.8944091796875,5.8993072509765625C10.671127319335938,5.8993072509765625,11.229560852050781,6.169647216796875,11.631919860839844,6.877410888671875L10.680648803710938,7.4882049560546875C10.471176147460938,7.112640380859375,10.245277404785156,6.964691162109375,9.8944091796875,6.964691162109375C9.536636352539062,6.964691162109375,9.309867858886719,7.1916961669921875,9.309867858886719,7.4882049560546875C9.309867858886719,7.8546905517578125,9.536880493164062,8.0030517578125,10.060958862304688,8.23004150390625L10.366355895996094,8.360855102539062C11.404281616210938,8.805938720703125,11.990325927734375,9.259719848632812,11.990325927734375,10.2799072265625C11.990325927734375,11.379745483398438,11.126327514648438,11.9822998046875,9.966056823730469,11.9822998046875C8.831573486328125,11.9822998046875,8.098579406738281,11.441650390625,7.739936828613281,10.733047485351562ZM4.417335510253906,10.262161254882812C4.60919189453125,10.602630615234375,4.7838287353515625,10.8905029296875,5.2034912109375,10.8905029296875C5.604820251464844,10.8905029296875,5.8580169677734375,10.733444213867188,5.8580169677734375,10.12286376953125L5.8580169677734375,5.96905517578125L7.079620361328125,5.96905517578125L7.079620361328125,10.139389038085938C7.079620361328125,11.404296875,6.3380584716796875,11.980010986328125,5.2555389404296875,11.980010986328125C4.2774505615234375,11.980010986328125,3.71099853515625,11.473846435546875,3.422893524169922,10.864166259765625Z"/></g></g></g></svg>